# xmcd
#
# Track frame offsets:
#	150
#	13537
#	26985
#	41422
#	55732
#	68512
#	80480
#	94885
#	115105
#	132905
#	145075
#	160662
#	183912
#	196912
#	215055
#	237215
#	254587
#	277067
#	297572
#	311282
#
# Disc length: 4484 seconds
#
# Revision: 3
# Processed by: cddbd v1.5.2PL0 Copyright (c) Steve Scherf et al.
# Submitted via: audiograbber 1.83.01
#
DISCID=20118214
DTITLE=Various Artist - Indigo Blues Collection 2
DYEAR=1997
DGENRE=Blues
TTITLE0=Blind Boy Fuller - Step It Up And Go
TTITLE1=Blind Blake - Diddie Wa Diddie
TTITLE2=Charly Patton - A Spoonful Blues
TTITLE3=Blind Willie Johnson - Nobody's Fault But Mine
TTITLE4=Sleepy John Estes - New Someday Baby
TTITLE5=Billie Holiday - Billie's Blues
TTITLE6=Lester Young - Boogie Woogie
TTITLE7=Mike Sanchez - Down The Road Apiece
TTITLE8=Norman Beaker Band - Cry To Me
TTITLE9=The Detonators - Act Like You Love Me
TTITLE10=John Lee Hooker - Mai Lee
TTITLE11=Duster Bennett - It's A Man Down There
TTITLE12=Jack Bruce and Paul Jones - Sonny Boy Williamson
TTITLE13=Tony McPhee's Groundhogs - Married Men
TTITLE14=Paul Lamb and The King Snakes - My Baby She Don't Look Like That
TTITLE15=Stan Webb's Chicken Shack - Look Out
TTITLE16=Mick Abrahams - Time To Love
TTITLE17=Chris Farlowe - Have A Little Faith In Me
TTITLE18=Ruby Turner - A Rockin' Good Way
TTITLE19=Alan Price and The Electric Blues Company - Some Change
EXTD=
EXTT0=
EXTT1=
EXTT2=
EXTT3=
EXTT4=
EXTT5=
EXTT6=
EXTT7=
EXTT8=
EXTT9=
EXTT10=
EXTT11=
EXTT12=
EXTT13=
EXTT14=
EXTT15=
EXTT16=
EXTT17=
EXTT18=
EXTT19=
PLAYORDER=
